<svg width="12" height="14" viewBox="0 0 12 14" fill="none" xmlns="http://www.w3.org/2000/svg">
<path d="M11.0328 6.33147C10.7295 5.64875 10.2885 5.03597 9.7375 4.53147L9.28281 4.11428C9.26737 4.10051 9.24879 4.09073 9.22869 4.08581C9.2086 4.08089 9.1876 4.08099 9.16754 4.08608C9.14749 4.09117 9.12899 4.1011 9.11367 4.11501C9.09835 4.12892 9.08668 4.14638 9.07969 4.16585L8.87656 4.74866C8.75 5.11428 8.51719 5.48772 8.1875 5.85491C8.16563 5.87835 8.14063 5.8846 8.12344 5.88616C8.10625 5.88772 8.07969 5.8846 8.05625 5.86272C8.03437 5.84397 8.02344 5.81585 8.025 5.78772C8.08281 4.8471 7.80156 3.78616 7.18594 2.63147C6.67656 1.6721 5.96875 0.92366 5.08437 0.401785L4.43906 0.0220976C4.35469 -0.0279024 4.24688 0.0377225 4.25156 0.13616L4.28594 0.88616C4.30937 1.39866 4.25 1.85179 4.10938 2.22835C3.9375 2.68929 3.69062 3.11741 3.375 3.50179C3.15535 3.76891 2.90639 4.01053 2.63281 4.2221C1.97391 4.72861 1.43815 5.37762 1.06562 6.12054C0.694022 6.86993 0.500453 7.695 0.5 8.53147C0.5 9.26897 0.645312 9.98304 0.932812 10.6565C1.21042 11.3049 1.61103 11.8933 2.1125 12.3893C2.61875 12.8893 3.20625 13.283 3.86094 13.5565C4.53906 13.8408 5.25781 13.9846 6 13.9846C6.74219 13.9846 7.46094 13.8408 8.13906 13.558C8.79214 13.2862 9.38601 12.8898 9.8875 12.3908C10.3938 11.8908 10.7906 11.3065 11.0672 10.658C11.3543 9.98644 11.5015 9.26341 11.5 8.53303C11.5 7.77053 11.3438 7.02991 11.0328 6.33147ZM9.14062 11.633C8.30156 12.4643 7.1875 12.9205 6 12.9205C4.8125 12.9205 3.69844 12.4643 2.85938 11.633C2.02344 10.8033 1.5625 9.70335 1.5625 8.53303C1.5625 7.85335 1.71563 7.20179 2.01719 6.59554C2.31094 6.00335 2.74844 5.47366 3.27969 5.06585C3.6185 4.80678 3.9258 4.50891 4.19531 4.17835C4.58594 3.70179 4.89219 3.17053 5.10469 2.60022C5.19185 2.36497 5.25519 2.12156 5.29375 1.87366C5.67031 2.22054 5.98594 2.63928 6.25 3.12991C6.77187 4.10803 7.0125 4.97835 6.96562 5.71897C6.95443 5.8934 6.98291 6.06811 7.04895 6.22994C7.11498 6.39178 7.21684 6.53654 7.34688 6.65335C7.45956 6.75514 7.59135 6.83352 7.73458 6.88395C7.87782 6.93438 8.02965 6.95584 8.18125 6.9471C8.48906 6.93147 8.77187 6.79554 8.97812 6.56585C9.18594 6.33304 9.36563 6.09554 9.51562 5.85335C9.73438 6.13304 9.91719 6.43772 10.0625 6.76585C10.3109 7.32522 10.4375 7.92053 10.4375 8.53303C10.4375 9.70335 9.97656 10.8049 9.14062 11.633Z" fill="white"/>
</svg>
