<svg width="20" height="20" viewBox="0 0 20 20" fill="none" xmlns="http://www.w3.org/2000/svg">
<path d="M18.7633 10.5094C19.157 9.98909 19.375 9.35159 19.375 8.6883C19.375 7.63596 18.7867 6.63987 17.8398 6.0844C17.5961 5.94142 17.3185 5.86617 17.0359 5.86643H11.4156L11.5563 2.98596C11.5891 2.28987 11.343 1.62893 10.8648 1.12502C10.6302 0.876652 10.3471 0.679038 10.0331 0.544395C9.71905 0.409752 9.38074 0.34094 9.03906 0.342211C7.82031 0.342211 6.74219 1.16252 6.41875 2.33674L4.40547 9.62581H1.375C0.960156 9.62581 0.625 9.96096 0.625 10.3758V18.9071C0.625 19.3219 0.960156 19.6571 1.375 19.6571H15.468C15.6836 19.6571 15.8945 19.6149 16.0891 19.5305C17.2047 19.0547 17.9242 17.9649 17.9242 16.7555C17.9242 16.4602 17.882 16.1696 17.7977 15.8883C18.1914 15.368 18.4094 14.7305 18.4094 14.0672C18.4094 13.7719 18.3672 13.4813 18.2828 13.2C18.6766 12.6797 18.8945 12.0422 18.8945 11.3789C18.8898 11.0836 18.8477 10.7906 18.7633 10.5094ZM2.3125 17.9696V11.3133H4.21094V17.9696H2.3125ZM17.2281 9.69612L16.7148 10.1414L17.0406 10.7367C17.148 10.9328 17.2036 11.153 17.2023 11.3766C17.2023 11.7633 17.0336 12.1313 16.743 12.3844L16.2297 12.8297L16.5555 13.425C16.6628 13.6211 16.7185 13.8413 16.7172 14.0649C16.7172 14.4516 16.5484 14.8196 16.2578 15.0727L15.7445 15.518L16.0703 16.1133C16.1776 16.3094 16.2333 16.5296 16.232 16.7531C16.232 17.2781 15.9227 17.7516 15.4445 17.9672H5.71094V11.2383L8.04297 2.78909C8.1031 2.57252 8.23219 2.38147 8.41066 2.24486C8.58914 2.10825 8.80728 2.03354 9.03203 2.03205C9.21016 2.03205 9.38594 2.08362 9.52656 2.18909C9.75859 2.36252 9.88281 2.62502 9.86875 2.90393L9.64375 7.55393H17.0125C17.4297 7.8094 17.6875 8.24065 17.6875 8.6883C17.6875 9.07502 17.5188 9.44065 17.2281 9.69612Z" fill="#8C8C8C"/>
</svg>
