<svg width="24" height="22" viewBox="0 0 24 22" fill="none" xmlns="http://www.w3.org/2000/svg">
<g filter="url(#filter0_d)">
<path d="M20.9367 4.87422L17.1258 1.06328C16.95 0.8875 16.7344 0.758594 16.5 0.688281V0.625H3.375C2.96016 0.625 2.625 0.960156 2.625 1.375V18.625C2.625 19.0398 2.96016 19.375 3.375 19.375H20.625C21.0398 19.375 21.375 19.0398 21.375 18.625V5.93359C21.375 5.53516 21.218 5.15547 20.9367 4.87422ZM9 2.3125H15V4.75H9V2.3125ZM19.6875 17.6875H4.3125V2.3125H7.5V5.5C7.5 5.91484 7.83516 6.25 8.25 6.25H15.75C16.1648 6.25 16.5 5.91484 16.5 5.5V2.82344L19.6875 6.01094V17.6875ZM12 8.35938C10.1367 8.35938 8.625 9.87109 8.625 11.7344C8.625 13.5977 10.1367 15.1094 12 15.1094C13.8633 15.1094 15.375 13.5977 15.375 11.7344C15.375 9.87109 13.8633 8.35938 12 8.35938ZM12 13.6094C10.9641 13.6094 10.125 12.7703 10.125 11.7344C10.125 10.6984 10.9641 9.85938 12 9.85938C13.0359 9.85938 13.875 10.6984 13.875 11.7344C13.875 12.7703 13.0359 13.6094 12 13.6094Z" fill="#8C8C8C"/>
</g>
<defs>
<filter id="filter0_d" x="-1.375" y="0.625" width="26.75" height="26.75" filterUnits="userSpaceOnUse" color-interpolation-filters="sRGB">
<feFlood flood-opacity="0" result="BackgroundImageFix"/>
<feColorMatrix in="SourceAlpha" type="matrix" values="0 0 0 0 0 0 0 0 0 0 0 0 0 0 0 0 0 0 127 0"/>
<feOffset dy="4"/>
<feGaussianBlur stdDeviation="2"/>
<feColorMatrix type="matrix" values="0 0 0 0 0 0 0 0 0 0 0 0 0 0 0 0 0 0 0.25 0"/>
<feBlend mode="normal" in2="BackgroundImageFix" result="effect1_dropShadow"/>
<feBlend mode="normal" in="SourceGraphic" in2="effect1_dropShadow" result="shape"/>
</filter>
</defs>
</svg>
